<?xml version="1.0" encoding="UTF-8" standalone="no"?>
<!-- Created with Inkscape (http://www.inkscape.org/) -->

<svg
  version="1.1"
  id="svg1"
  width="2000"
  height="2000"
  viewBox="0 0 2000 2000"
  sodipodi:docname="KJANAT Icon Inkscape - Nextcloud.svg"
  inkscape:version="1.3.2 (091e20e, 2023-11-25, custom)"
  xml:space="preserve"
  xmlns:inkscape="http://www.inkscape.org/namespaces/inkscape"
  xmlns:sodipodi="http://sodipodi.sourceforge.net/DTD/sodipodi-0.dtd"
  xmlns="http://www.w3.org/2000/svg"
  xmlns:svg="http://www.w3.org/2000/svg"
  xmlns:rdf="http://www.w3.org/1999/02/22-rdf-syntax-ns#"
  xmlns:cc="http://creativecommons.org/ns#"
  xmlns:dc="http://purl.org/dc/elements/1.1/"><title
   id="title6">KJANAT Nextcloud Logo</title><defs
   id="defs1" /><sodipodi:namedview
   id="namedview1"
   pagecolor="#ffffff"
   bordercolor="#000000"
   borderopacity="0.25"
   inkscape:showpageshadow="2"
   inkscape:pageopacity="0.0"
   inkscape:pagecheckerboard="0"
   inkscape:deskcolor="#d1d1d1"
   showgrid="false"
   inkscape:zoom="0.5"
   inkscape:cx="861"
   inkscape:cy="943"
   inkscape:window-width="2560"
   inkscape:window-height="1369"
   inkscape:window-x="-8"
   inkscape:window-y="723"
   inkscape:window-maximized="1"
   inkscape:current-layer="g1" /><g
   inkscape:groupmode="layer"
   inkscape:label="KJANT Logo"
   id="g1"
   style="display:inline;opacity:1"><circle
    style="display:inline;opacity:1;fill:#ffffff;fill-opacity:1;fill-rule:nonzero;stroke:#000000;stroke-width:99.205;stroke-miterlimit:0;stroke-dasharray:none;stroke-opacity:1;paint-order:normal"
    id="path1"
    cx="1000"
    cy="1000"
    r="950.39807"
    inkscape:label="Circle" /><path
    style="display:inline;opacity:1;fill:#000000;fill-opacity:1;fill-rule:nonzero;stroke:#000000;stroke-width:0;stroke-miterlimit:0;stroke-dasharray:none;stroke-opacity:1;paint-order:normal"
    d="m 476,1330 v -275 l 378,419 v 275 z"
    id="path2"
    inkscape:label="K Lower Heel"
    sodipodi:nodetypes="ccccc" /><path
    style="display:inline;opacity:1;fill:#000000;fill-opacity:1;fill-rule:nonzero;stroke:#000000;stroke-width:0;stroke-miterlimit:0;stroke-dasharray:none;stroke-opacity:1;paint-order:normal"
    d="M 476,970 V 820 l 378,418 v 150 z"
    id="path4"
    inkscape:label="K Upper Heel"
    sodipodi:nodetypes="ccccc" /><path
    style="display:inline;opacity:1;fill:#000000;fill-opacity:1;fill-rule:nonzero;stroke:#000000;stroke-width:0;stroke-miterlimit:0;stroke-dasharray:none;stroke-opacity:1;paint-order:normal"
    d="M 476,740 V 270 h 378 v 280 l 269,-280 h 477 l -538,560 418,454 v 566.1 z"
    id="path5"
    inkscape:label="K Body"
    sodipodi:nodetypes="cccccccccc" /><path
    fill="#ff5d20"
    opacity="1"
    stroke="none"
    d="m 1685.3,1332.9 c 0,3 1,4 4,4 253.8,42.3 310.7024,230.7977 310.7,310.1 -0,154.3156 -104.8,353.1 -364.7,353 H 339.3 C 114.3,2000 0.00312203,1809.1 0,1649 c -0.00267293,-137.0701 76.5,-277.9 247.2,-351.2 0.9,-0.4 2,-2 2,-4 12.5614,-219.8246 268.48261,-314.35545 411.3,-188.4 3.74997,3.3072 6,2 8,-2 232.83053,-475.78412 1016.8,-296.91511 1016.8,229.4 z"
    id="path-cloud"
    inkscape:label="Orange Cloud"
    style="display:inline;stroke-width:1.0013;image-rendering:auto"
    sodipodi:nodetypes="ssscssssssss"><title
     id="title3">Orange Cloud</title></path></g><metadata
   id="metadata6"><rdf:RDF><cc:Work
     rdf:about=""><dc:title>KJANAT Nextcloud Logo</dc:title></cc:Work></rdf:RDF></metadata></svg>
